<?xml version="1.0" encoding="iso-8859-1"?>
<!-- Generator: Adobe Illustrator 19.0.0, SVG Export Plug-In . SVG Version: 6.00 Build 0)  -->
<svg version="1.1" id="Layer_1" xmlns="http://www.w3.org/2000/svg" xmlns:xlink="http://www.w3.org/1999/xlink" x="0px" y="0px"
	 viewBox="0 0 504.32 504.32" style="enable-background:new 0 0 504.32 504.32;" xml:space="preserve">
<g transform="translate(1 1)">
	<path style="fill:#E2E3E5;" d="M449.636,229.4c-13.653,0-29.013,5.973-40.107,13.653c-12.8,8.533-29.013,23.04-42.667,46.933
		c-4.267,7.68-12.8,13.653-21.333,13.653c-8.533,0-5.973-4.267-6.827-21.333v-25.6V92.867c0-14.507-11.093-25.6-25.6-25.6
		c-14.507,0-25.6,11.093-25.6,25.6v132.267c0,6.827-5.973,12.8-12.8,12.8s-12.8,15.36-12.8,8.533L74.169,306.2v60.587
		c6.827,103.253,64,127.147,143.36,127.147c57.173,0,105.813-29.013,129.707-71.68c10.24-16.213,69.973-109.227,75.093-119.467
		c5.973-11.093,14.507-24.747,25.6-34.133c5.973-5.12,10.24-11.093,13.653-17.92C462.436,249.88,464.996,229.4,449.636,229.4"/>
	<path style="fill:#CCCCCC;" d="M261.903,92.867v132.267c0,6.827-5.973,12.8-12.8,12.8s-12.8-5.973-12.8-12.8v-192
		c0-14.507-11.093-25.6-25.6-25.6s-25.6,11.093-25.6,25.6v192c0,6.827-5.973,12.8-12.8,12.8s-12.8-5.973-12.8-12.8v-153.6
		c0-11.947-9.387-21.333-21.333-21.333s-21.333,9.387-21.333,21.333V242.2c0,6.827-5.973,12.8-12.8,12.8s-12.8-5.973-12.8-12.8
		V135.533c0-11.947-9.387-21.333-21.333-21.333l0,0c-11.947,0-21.333,9.387-21.333,21.333v231.253
		c6.827,103.253,64,127.147,143.36,127.147c57.173,0,105.813-29.013,129.707-71.68c10.24-16.213,69.973-109.227,75.093-119.467
		c5.973-11.093,14.507-24.747,25.6-34.133c5.973-5.12,10.24-11.093,13.653-17.92c0.853-1.707,3.413-22.187-11.947-22.187
		c-13.653,0-29.013,5.973-40.107,13.653c-12.8,8.533-29.013,23.04-42.667,46.933c-4.267,7.68-12.8,13.653-21.333,13.653
		c-8.533,0-5.973-4.267-6.827-21.333v-25.6V92.867c0-14.507-11.093-25.6-25.6-25.6C272.996,67.267,261.903,78.36,261.903,92.867"/>
	<path style="fill:#E2E3E5;" d="M398.436,229.4c-13.653,0-29.013,5.973-40.107,13.653c-12.8,8.533-29.013,23.04-42.667,46.933
		c-4.267,7.68-12.8,13.653-21.333,13.653c-8.533,0-5.973-4.267-6.827-21.333V92.867c0-9.387-5.12-17.92-13.653-22.187
		c-2.56,2.56-5.12,4.267-7.68,6.827c-0.853,0.853-1.707,0.853-2.56,1.707c-1.707,20.48-5.973,40.96-6.827,61.44
		c-0.853,27.307,0,54.613,0,81.92c0,11.947-18.773,11.947-18.773,0c0-27.307-0.853-54.613,0-81.92c0-12.8,1.707-24.747,3.413-37.547
		c-1.707,0.853-4.267,0.853-5.973,0.853v122.027c0,6.827-5.973,12.8-12.8,12.8s-12.8-5.973-12.8-12.8V33.133
		c0-8.533-4.267-16.213-11.093-21.333c0,2.56-1.707,5.12-4.267,6.827c-4.267,2.56-7.68,5.12-11.093,7.68c0,0.853,0,1.707-0.853,2.56
		c-2.56,6.827-4.267,13.653-5.12,21.333c3.413,0.853,5.973,3.413,5.973,8.533c0,25.6-7.68,50.347-4.267,75.947
		c0.853,5.12-1.707,8.533-5.973,10.24c3.413,25.6,5.973,50.347,5.973,76.8c0,11.947-18.773,11.947-18.773,0c0-1.707,0-3.413,0-5.12
		c-0.853,0-1.707,0-2.56-0.853v7.68c0,6.827-5.973,12.8-12.8,12.8c-6.827,0-12.8-5.973-12.8-12.8v-153.6
		c0-8.533-5.12-15.36-11.947-18.773c-4.267,4.267-8.533,8.533-11.947,13.653c2.56,13.653,1.707,26.453,0,40.107
		c8.533,46.933,5.12,93.013,5.12,139.093c0,11.947-18.773,11.947-18.773,0c0-33.28,2.56-68.267,0-102.4
		c-1.707,0-2.56-0.853-3.413-1.707v102.4c0,6.827-5.973,12.8-12.8,12.8c-6.827,0-12.8-5.973-12.8-12.8V135.533
		c0-11.947,3.413-21.333-8.533-21.333l0,0c-11.947,0-8.533,9.387-8.533,21.333v231.253c6.827,103.253,75.093,127.147,117.76,127.147
		c57.173,0,105.813-29.013,129.707-71.68c10.24-16.213,69.973-109.227,75.093-119.467c5.973-11.093,14.507-24.747,25.6-34.133
		c5.973-5.12,10.24-11.093,13.653-17.92C411.236,249.88,413.796,229.4,398.436,229.4"/>
	<path style="fill:#B6B6B6;" d="M191.929,503.32c-70.827,0-143.36-16.213-151.893-135.68V135.533
		c0-16.213,13.653-29.867,29.867-29.867s29.867,13.653,29.867,29.867V242.2c0,2.56,1.707,4.267,4.267,4.267s4.267-1.707,4.267-4.267
		V71.533c0-16.213,13.653-29.867,29.867-29.867s29.867,13.653,29.867,29.867v153.6c0,2.56,1.707,4.267,4.267,4.267
		c2.56,0,4.267-1.707,4.267-4.267v-192C176.569,14.36,191.929-1,210.703-1s34.133,15.36,34.133,34.133v192
		c0,2.56,1.707,4.267,4.267,4.267c2.56,0,4.267-1.707,4.267-4.267V92.867c0-18.773,15.36-34.133,34.133-34.133
		c18.773,0,34.133,15.36,34.133,34.133v188.587c0,3.413,0,6.827,0,9.387c0,0.853,0,2.56,0,3.413c5.12-0.853,9.387-4.267,12.8-9.387
		c15.36-26.453,33.28-41.813,45.227-50.347c13.653-9.387,30.72-14.507,44.373-14.507c6.827,0,13.653,3.413,17.92,9.387
		c5.12,9.387,3.413,22.187,1.707,25.6c-3.413,6.827-8.533,14.507-15.36,20.48c-8.533,6.827-16.213,17.92-23.893,31.573
		c-3.413,5.973-25.6,41.813-52.053,83.627c-10.24,17.067-19.627,30.72-23.04,35.84C302.863,474.307,249.956,503.32,191.929,503.32z
		 M69.903,122.733c-6.827,0-12.8,5.973-12.8,12.8v231.253c5.973,84.48,45.227,119.467,134.827,119.467
		c52.053,0,98.987-25.6,122.027-66.56c3.413-5.973,12.8-19.627,23.04-36.693c19.627-30.72,48.64-75.947,52.053-81.92
		c8.533-16.213,17.92-28.16,28.16-36.693c4.267-3.413,7.68-8.533,11.093-14.507c0-2.56,0-7.68-1.707-10.24
		c0,0-0.853-0.853-2.56-0.853l0,0c-11.093,0-24.747,4.267-34.987,11.947c-11.093,7.68-26.453,21.333-40.107,44.373
		c-5.973,11.093-17.067,17.92-29.013,17.92c-3.413,0-7.68,0-11.093-3.413c-4.267-4.267-4.267-9.387-4.267-17.067
		c0-2.56,0-5.12,0-9.387V92.867c0-9.387-7.68-17.067-17.067-17.067c-9.387,0-17.067,7.68-17.067,17.067v132.267
		c0,11.947-9.387,21.333-21.333,21.333s-21.333-9.387-21.333-21.333v-192c0-9.387-7.68-17.067-17.067-17.067
		s-17.067,7.68-17.067,17.067v192c0,11.947-9.387,21.333-21.333,21.333c-11.947,0-21.333-9.387-21.333-21.333v-153.6
		c0-6.827-5.973-12.8-12.8-12.8c-6.827,0-12.8,5.973-12.8,12.8V242.2c0,11.947-9.387,21.333-21.333,21.333
		s-21.333-9.387-21.333-21.333V135.533C82.703,128.707,76.729,122.733,69.903,122.733z"/>
</g>
<g>
</g>
<g>
</g>
<g>
</g>
<g>
</g>
<g>
</g>
<g>
</g>
<g>
</g>
<g>
</g>
<g>
</g>
<g>
</g>
<g>
</g>
<g>
</g>
<g>
</g>
<g>
</g>
<g>
</g>
</svg>
